REM MD5 01ecc9b3d54772c051515959b943d10b
FILE "Affect Taikenban Vol. 1 (Japan).bin" BINARY
  TRACK 01 MODE2/2352
    INDEX 01 00:00:00
  TRACK 02 AUDIO
    INDEX 00 43:02:27
    INDEX 01 43:04:27
  TRACK 03 AUDIO
    INDEX 00 53:35:17
    INDEX 01 53:37:17
REM LEADOUT 56:37:19
